<svg xmlns="http://www.w3.org/2000/svg" viewBox="0 0 320 240" width="320" height="240" role="img" aria-label="speaking face large mouth">
  <defs>
    <linearGradient id="eye-fill" x1="0" y1="86" x2="0" y2="164" gradientUnits="userSpaceOnUse">
      <stop offset="0.00" stop-color="#050505"/>
      <stop offset="0.58" stop-color="#050505"/>
      <stop offset="1.00" stop-color="#0873ff"/>
    </linearGradient>
    <linearGradient id="mouth-fill" x1="0" y1="174" x2="0" y2="207" gradientUnits="userSpaceOnUse">
      <stop offset="0" stop-color="#73baff"/>
      <stop offset="1" stop-color="#0873ff"/>
    </linearGradient>
    <filter id="soft-blue" x="-20%" y="-20%" width="140%" height="140%">
      <feDropShadow dx="0" dy="2" stdDeviation="1" flood-color="#0a4aa8" flood-opacity="0.8"/>
    </filter>
  </defs>

  <rect width="320" height="240" fill="#000"/>

  <g fill="none" stroke-linecap="round">
    <path d="M67 63 C77 54 92 52 103 56" stroke="#0c3b80" stroke-width="12" opacity="0.75"/>
    <path d="M67 63 C77 54 92 52 103 56" stroke="#66adff" stroke-width="8"/>
    <path d="M217 56 C229 51 244 54 255 64" stroke="#0c3b80" stroke-width="12" opacity="0.75"/>
    <path d="M217 56 C229 51 244 54 255 64" stroke="#66adff" stroke-width="8"/>
  </g>

  <g filter="url(#soft-blue)">
    <circle cx="92" cy="123" r="39" fill="#fff"/>
    <circle cx="92" cy="123" r="37" fill="#fff" stroke="#173d78" stroke-width="2"/>
    <ellipse cx="92" cy="127" rx="29" ry="31" fill="url(#eye-fill)"/>
    <circle cx="102" cy="115" r="7" fill="#fff"/>
    <circle cx="228" cy="123" r="39" fill="#fff"/>
    <circle cx="228" cy="123" r="37" fill="#fff" stroke="#173d78" stroke-width="2"/>
    <ellipse cx="228" cy="127" rx="29" ry="31" fill="url(#eye-fill)"/>
    <circle cx="238" cy="115" r="7" fill="#fff"/>
  </g>

  <g fill="none" stroke="#ffc4d4" stroke-linecap="round" stroke-width="8">
    <path d="M38 190 L48 176"/>
    <path d="M58 190 L68 176"/>
    <path d="M252 190 L262 176"/>
    <path d="M272 190 L282 176"/>
  </g>

  <path d="M135 176 C136 199 147 211 160 211 C173 211 184 199 185 176 Z" fill="#0a3d87"/>
  <path d="M138 174 C139 196 148 207 160 207 C172 207 181 196 182 174 Z" fill="url(#mouth-fill)"/>
</svg>
