<svg xmlns="http://www.w3.org/2000/svg" viewBox="0 0 320 240" width="320" height="240" role="img" aria-label="thinking face">
  <defs>
    <linearGradient id="eye-fill" x1="0" y1="86" x2="0" y2="164" gradientUnits="userSpaceOnUse">
      <stop offset="0.00" stop-color="#050505"/>
      <stop offset="0.58" stop-color="#050505"/>
      <stop offset="1.00" stop-color="#0873ff"/>
    </linearGradient>
    <filter id="soft-blue" x="-20%" y="-20%" width="140%" height="140%">
      <feDropShadow dx="0" dy="2" stdDeviation="1" flood-color="#0a4aa8" flood-opacity="0.8"/>
    </filter>
  </defs>

  <rect width="320" height="240" fill="#000"/>

  <g fill="none" stroke-linecap="round">
    <path d="M64 64 C77 50 100 48 113 66" stroke="#0c3b80" stroke-width="12" opacity="0.75"/>
    <path d="M64 64 C77 50 100 48 113 66" stroke="#66adff" stroke-width="8"/>
    <path d="M200 63 C212 72 233 72 246 62" stroke="#0c3b80" stroke-width="11" opacity="0.75"/>
    <path d="M200 63 C212 72 233 72 246 62" stroke="#66adff" stroke-width="7"/>
  </g>

  <g filter="url(#soft-blue)">
    <circle cx="92" cy="123" r="39" fill="#fff"/>
    <circle cx="92" cy="123" r="37" fill="#fff" stroke="#173d78" stroke-width="2"/>
    <ellipse cx="92" cy="127" rx="29" ry="31" fill="url(#eye-fill)"/>
    <circle cx="102" cy="115" r="7" fill="#fff"/>
    <circle cx="228" cy="123" r="39" fill="#fff"/>
    <circle cx="228" cy="123" r="37" fill="#fff" stroke="#173d78" stroke-width="2"/>
    <ellipse cx="228" cy="127" rx="29" ry="31" fill="url(#eye-fill)"/>
    <circle cx="238" cy="115" r="7" fill="#fff"/>
  </g>

  <g fill="none" stroke="#ffc4d4" stroke-linecap="round" stroke-width="8">
    <path d="M38 190 L48 176"/>
    <path d="M58 190 L68 176"/>
    <path d="M252 190 L262 176"/>
    <path d="M272 190 L282 176"/>
  </g>

  <g fill="none" stroke-linecap="round">
    <path d="M144 193 C153 184 168 181 176 188" stroke="#0a3d87" stroke-width="10"/>
    <path d="M144 193 C153 184 168 181 176 188" stroke="#66adff" stroke-width="6"/>
  </g>

  <g filter="url(#soft-blue)">
    <g fill="none" stroke-linecap="round" stroke-linejoin="round">
      <path d="M258 23 C263 12 282 13 293 24
               C304 35 300 51 285 58
               C277 62 271 61 268 73"
            stroke="#0c3b80" stroke-width="12" opacity="0.85"/>
      <path d="M258 23 C263 12 282 13 293 24
               C304 35 300 51 285 58
               C277 62 271 61 268 73"
            stroke="#66adff" stroke-width="8"/>
    </g>
    <circle cx="266" cy="89" r="6" fill="#0c3b80" opacity="0.85"/>
    <circle cx="266" cy="89" r="4" fill="#66adff"/>
  </g>
</svg>
